# xmcd CD database file
#
# Track frame offsets:
#	150
#	16519
#	31464
#	49385
#	68170
#	79946
#	94757
#	110007
#	140402
#	149903
#	168127
#	184905
#	204098
#	219408
#	234427
#
# Disc length: 3476 seconds
#
# Revision: 2
# Processed by: cddbd v1.5.2PL0 Copyright (c) Steve Scherf et al.
# Submitted via: CDex 1.51
#
DISCID=d10d920f
DTITLE=Михаил Щербаков - Райцентр
DYEAR=2006
DGENRE=Blues
TTITLE0=East Coast
TTITLE1=Райцентр
TTITLE2=Воробьёвы горы
TTITLE3=Фридрих идёт
TTITLE4=Треска
TTITLE5=Тарантелла
TTITLE6=Интермедия 6
TTITLE7=Paris encore
TTITLE8=До поезда
TTITLE9=Кино-метро
TTITLE10=Напоследок
TTITLE11=У дороги чибис
TTITLE12=Паром
TTITLE13=Скрипач и конка
TTITLE14=L'homme a la moto
EXTD=YEAR: 2006
EXTT0=
EXTT1=
EXTT2=
EXTT3=
EXTT4=
EXTT5=
EXTT6=
EXTT7=
EXTT8=
EXTT9=
EXTT10=
EXTT11=
EXTT12=
EXTT13=
EXTT14=
PLAYORDER=
